<svg width="274" height="171" viewBox="0 0 274 171" fill="none" xmlns="http://www.w3.org/2000/svg">
<rect x="51.5" y="104.5" width="182" height="11" fill="#6A68BE" stroke="black"/>
<path d="M234 104.5C234.057 104.5 234.191 104.534 234.386 104.781C234.576 105.022 234.769 105.402 234.94 105.915C235.281 106.938 235.5 108.382 235.5 110C235.5 111.618 235.281 113.062 234.94 114.085C234.769 114.598 234.576 114.978 234.386 115.219C234.191 115.466 234.057 115.5 234 115.5C233.943 115.5 233.809 115.466 233.614 115.219C233.424 114.978 233.231 114.598 233.06 114.085C232.719 113.062 232.5 111.618 232.5 110C232.5 108.382 232.719 106.938 233.06 105.915C233.231 105.402 233.424 105.022 233.614 104.781C233.809 104.534 233.943 104.5 234 104.5Z" fill="#6A68BE" stroke="black"/>
<path d="M51 104.5C51.0573 104.5 51.1914 104.534 51.3858 104.781C51.5757 105.022 51.7686 105.402 51.9399 105.915C52.2806 106.938 52.5 108.382 52.5 110C52.5 111.618 52.2806 113.062 51.9399 114.085C51.7686 114.598 51.5757 114.978 51.3858 115.219C51.1914 115.466 51.0573 115.5 51 115.5C50.9427 115.5 50.8086 115.466 50.6142 115.219C50.4243 114.978 50.2314 114.598 50.0601 114.085C49.7194 113.062 49.5 111.618 49.5 110C49.5 108.382 49.7194 106.938 50.0601 105.915C50.2314 105.402 50.4243 105.022 50.6142 104.781C50.8086 104.534 50.9427 104.5 51 104.5Z" fill="#6A68BE" stroke="black"/>
<rect x="51" y="105" width="4" height="10" fill="#6A68BE"/>
<path d="M49.548 105.874C49.7531 105.224 50.0061 104.713 50.29 104.389L50.6658 104.719C50.8342 104.527 50.948 104.5 51 104.5C51.052 104.5 51.1658 104.527 51.3342 104.719L51.71 104.389C51.9939 104.713 52.2469 105.224 52.452 105.874L51.9752 106.024C52.1164 106.471 52.2357 106.995 52.3247 107.578L52.819 107.502C52.8982 108.021 52.9536 108.579 52.9808 109.165L52.4813 109.188C52.4936 109.453 52.5 109.724 52.5 110C52.5 110.276 52.4936 110.547 52.4813 110.812L52.9808 110.835C52.9536 111.421 52.8982 111.979 52.819 112.498L52.3247 112.422C52.2357 113.005 52.1164 113.529 51.9752 113.976L52.452 114.126C52.2469 114.776 51.9939 115.287 51.71 115.611L51.3342 115.281C51.1658 115.473 51.052 115.5 51 115.5C50.948 115.5 50.8342 115.473 50.6658 115.281L50.29 115.611C50.0061 115.287 49.7531 114.776 49.548 114.126L50.0248 113.976C49.8836 113.529 49.7643 113.005 49.6753 112.422L49.181 112.498C49.1018 111.979 49.0464 111.421 49.0192 110.835L49.5187 110.812C49.5064 110.547 49.5 110.276 49.5 110C49.5 109.724 49.5064 109.453 49.5187 109.188L49.0192 109.165C49.0464 108.579 49.1018 108.021 49.181 107.502L49.6753 107.578C49.7643 106.995 49.8836 106.471 50.0248 106.024L49.548 105.874Z" stroke="black" stroke-dasharray="2 2"/>
<rect x="64.5" y="92.5" width="157" height="12" fill="#BE6868" stroke="black"/>
<rect x="208.5" y="74.5" width="13" height="17" fill="#BE6868" stroke="black"/>
<rect x="209" y="79" width="12" height="18" fill="#BE6868"/>
<path d="M221.5 74.5C221.5 74.6409 221.421 74.8428 221.127 75.0911C220.836 75.3375 220.384 75.5819 219.782 75.7969C218.582 76.2254 216.891 76.5 215 76.5C213.109 76.5 211.418 76.2254 210.218 75.7969C209.616 75.5819 209.164 75.3375 208.873 75.0911C208.579 74.8428 208.5 74.6409 208.5 74.5C208.5 74.3591 208.579 74.1572 208.873 73.9089C209.164 73.6625 209.616 73.4181 210.218 73.2031C211.418 72.7746 213.109 72.5 215 72.5C216.891 72.5 218.582 72.7746 219.782 73.2031C220.384 73.4181 220.836 73.6625 221.127 73.9089C221.421 74.1572 221.5 74.3591 221.5 74.5Z" fill="#BE6868" stroke="black"/>
<rect x="221.5" y="127.5" width="157" height="12" transform="rotate(-180 221.5 127.5)" fill="#BE6868" stroke="black"/>
<rect x="77.5" y="145.5" width="13" height="17" transform="rotate(-180 77.5 145.5)" fill="#BE6868" stroke="black"/>
<rect x="77" y="141" width="12" height="18" transform="rotate(-180 77 141)" fill="#BE6868"/>
<path d="M64.5 146C64.5 145.978 64.5199 145.845 64.83 145.636C65.1226 145.438 65.5789 145.24 66.1876 145.067C67.3983 144.721 69.0999 144.5 71 144.5C72.9001 144.5 74.6017 144.721 75.8124 145.067C76.4211 145.24 76.8774 145.438 77.17 145.636C77.4801 145.845 77.5 145.978 77.5 146C77.5 146.022 77.4801 146.155 77.17 146.364C76.8774 146.562 76.4211 146.76 75.8124 146.933C74.6017 147.279 72.9001 147.5 71 147.5C69.0999 147.5 67.3983 147.279 66.1876 146.933C65.5789 146.76 65.1226 146.562 64.83 146.364C64.5199 146.155 64.5 146.022 64.5 146Z" fill="#BE6868" stroke="black"/>
<rect x="65" y="146" width="4" height="12" transform="rotate(-90 65 146)" fill="#BE6868"/>
<path d="M66.2747 147.476C65.5173 147.277 64.9128 147.032 64.518 146.756L64.8044 146.347C64.5174 146.146 64.5 146.021 64.5 146C64.5 145.979 64.5174 145.854 64.8044 145.653L64.518 145.244C64.9128 144.968 65.5173 144.723 66.2747 144.524L66.4012 145.008C66.9273 144.871 67.537 144.755 68.2099 144.669L68.1466 144.173C68.7407 144.097 69.3786 144.044 70.0465 144.018L70.0659 144.518C70.3712 144.506 70.683 144.5 71 144.5C71.317 144.5 71.6288 144.506 71.9341 144.518L71.9535 144.018C72.6214 144.044 73.2593 144.097 73.8534 144.173L73.7901 144.669C74.463 144.755 75.0727 144.871 75.5988 145.008L75.7253 144.524C76.4827 144.723 77.0872 144.968 77.482 145.244L77.1956 145.653C77.4826 145.854 77.5 145.979 77.5 146C77.5 146.021 77.4826 146.146 77.1956 146.347L77.482 146.756C77.0872 147.032 76.4828 147.277 75.7253 147.476L75.5988 146.992C75.0727 147.129 74.463 147.245 73.7901 147.331L73.8534 147.827C73.2593 147.903 72.6214 147.956 71.9535 147.982L71.9341 147.482C71.6288 147.494 71.317 147.5 71 147.5C70.683 147.5 70.3712 147.494 70.0659 147.482L70.0465 147.982C69.3786 147.956 68.7407 147.903 68.1466 147.827L68.2099 147.331C67.537 147.245 66.9273 147.129 66.4012 146.992L66.2747 147.476Z" stroke="black" stroke-dasharray="2 2"/>
<rect x="27" y="109.818" width="13.9623" height="1.36364" fill="black"/>
<path d="M47 110.5L40.9623 113V108L47 110.5Z" fill="black"/>
<rect x="238" y="109.818" width="13.9623" height="1.36364" fill="black"/>
<path d="M258 110.5L251.962 113V108L258 110.5Z" fill="black"/>
<rect x="215.193" y="48.0017" width="13.9623" height="1.36364" transform="rotate(90.0315 215.193 48.0017)" fill="black"/>
<path d="M214.5 68.0014L212.003 61.9623L217.003 61.965L214.5 68.0014Z" fill="black"/>
<rect x="71.1928" y="150.002" width="13.9623" height="1.36364" transform="rotate(90.0315 71.1928 150.002)" fill="black"/>
<path d="M70.5 170.001L68.0033 163.962L73.0033 163.965L70.5 170.001Z" fill="black"/>
<rect x="156.009" y="99.1818" width="13.9623" height="1.36364" transform="rotate(179.836 156.009 99.1818)" fill="black"/>
<path d="M136.007 98.5572L142.038 96.0399L142.052 101.04L136.007 98.5572Z" fill="black"/>
<rect x="156.009" y="122.182" width="13.9623" height="1.36364" transform="rotate(179.836 156.009 122.182)" fill="black"/>
<path d="M136.007 121.557L142.038 119.04L142.052 124.04L136.007 121.557Z" fill="black"/>
<path d="M174.699 9.88086C174.41 10.2949 174.006 10.6055 173.486 10.8125C172.971 11.0156 172.369 11.1172 171.682 11.1172C170.986 11.1172 170.369 10.9551 169.83 10.6309C169.291 10.3027 168.873 9.83789 168.576 9.23633C168.283 8.63477 168.133 7.9375 168.125 7.14453V6.40039C168.125 5.11523 168.424 4.11914 169.021 3.41211C169.623 2.70508 170.467 2.35156 171.553 2.35156C172.443 2.35156 173.16 2.58008 173.703 3.03711C174.246 3.49023 174.578 4.13477 174.699 4.9707H173.574C173.363 3.8418 172.691 3.27734 171.559 3.27734C170.805 3.27734 170.232 3.54297 169.842 4.07422C169.455 4.60156 169.26 5.36719 169.256 6.37109V7.06836C169.256 8.02539 169.475 8.78711 169.912 9.35352C170.35 9.91602 170.941 10.1973 171.688 10.1973C172.109 10.1973 172.479 10.1504 172.795 10.0566C173.111 9.96289 173.373 9.80469 173.58 9.58203V7.66602H171.605V6.75195H174.699V9.88086ZM179.041 11.1172C178.182 11.1172 177.482 10.8359 176.943 10.2734C176.404 9.70703 176.135 8.95117 176.135 8.00586V7.80664C176.135 7.17773 176.254 6.61719 176.492 6.125C176.734 5.62891 177.07 5.24219 177.5 4.96484C177.934 4.68359 178.402 4.54297 178.906 4.54297C179.73 4.54297 180.371 4.81445 180.828 5.35742C181.285 5.90039 181.514 6.67773 181.514 7.68945V8.14062H177.219C177.234 8.76562 177.416 9.27148 177.764 9.6582C178.115 10.041 178.561 10.2324 179.1 10.2324C179.482 10.2324 179.807 10.1543 180.072 9.99805C180.338 9.8418 180.57 9.63477 180.77 9.37695L181.432 9.89258C180.9 10.709 180.104 11.1172 179.041 11.1172ZM178.906 5.43359C178.469 5.43359 178.102 5.59375 177.805 5.91406C177.508 6.23047 177.324 6.67578 177.254 7.25H180.43V7.16797C180.398 6.61719 180.25 6.19141 179.984 5.89062C179.719 5.58594 179.359 5.43359 178.906 5.43359ZM182.486 7.77148C182.486 7.15039 182.607 6.5918 182.85 6.0957C183.096 5.59961 183.436 5.2168 183.869 4.94727C184.307 4.67773 184.805 4.54297 185.363 4.54297C186.227 4.54297 186.924 4.8418 187.455 5.43945C187.99 6.03711 188.258 6.83203 188.258 7.82422V7.90039C188.258 8.51758 188.139 9.07227 187.9 9.56445C187.666 10.0527 187.328 10.4336 186.887 10.707C186.449 10.9805 185.945 11.1172 185.375 11.1172C184.516 11.1172 183.818 10.8184 183.283 10.2207C182.752 9.62305 182.486 8.83203 182.486 7.84766V7.77148ZM183.576 7.90039C183.576 8.60352 183.738 9.16797 184.062 9.59375C184.391 10.0195 184.828 10.2324 185.375 10.2324C185.926 10.2324 186.363 10.0176 186.688 9.58789C187.012 9.1543 187.174 8.54883 187.174 7.77148C187.174 7.07617 187.008 6.51367 186.676 6.08398C186.348 5.65039 185.91 5.43359 185.363 5.43359C184.828 5.43359 184.396 5.64648 184.068 6.07227C183.74 6.49805 183.576 7.10742 183.576 7.90039ZM191.088 3.125V4.66016H192.271V5.49805H191.088V9.42969C191.088 9.68359 191.141 9.875 191.246 10.0039C191.352 10.1289 191.531 10.1914 191.785 10.1914C191.91 10.1914 192.082 10.168 192.301 10.1211V11C192.016 11.0781 191.738 11.1172 191.469 11.1172C190.984 11.1172 190.619 10.9707 190.373 10.6777C190.127 10.3848 190.004 9.96875 190.004 9.42969V5.49805H188.85V4.66016H190.004V3.125H191.088ZM194.627 5.42773C195.107 4.83789 195.732 4.54297 196.502 4.54297C197.842 4.54297 198.518 5.29883 198.529 6.81055V11H197.445V6.80469C197.441 6.34766 197.336 6.00977 197.129 5.79102C196.926 5.57227 196.607 5.46289 196.174 5.46289C195.822 5.46289 195.514 5.55664 195.248 5.74414C194.982 5.93164 194.775 6.17773 194.627 6.48242V11H193.543V2H194.627V5.42773ZM202.783 11.1172C201.924 11.1172 201.225 10.8359 200.686 10.2734C200.146 9.70703 199.877 8.95117 199.877 8.00586V7.80664C199.877 7.17773 199.996 6.61719 200.234 6.125C200.477 5.62891 200.812 5.24219 201.242 4.96484C201.676 4.68359 202.145 4.54297 202.648 4.54297C203.473 4.54297 204.113 4.81445 204.57 5.35742C205.027 5.90039 205.256 6.67773 205.256 7.68945V8.14062H200.961C200.977 8.76562 201.158 9.27148 201.506 9.6582C201.857 10.041 202.303 10.2324 202.842 10.2324C203.225 10.2324 203.549 10.1543 203.814 9.99805C204.08 9.8418 204.312 9.63477 204.512 9.37695L205.174 9.89258C204.643 10.709 203.846 11.1172 202.783 11.1172ZM202.648 5.43359C202.211 5.43359 201.844 5.59375 201.547 5.91406C201.25 6.23047 201.066 6.67578 200.996 7.25H204.172V7.16797C204.141 6.61719 203.992 6.19141 203.727 5.89062C203.461 5.58594 203.102 5.43359 202.648 5.43359ZM209.58 5.63281C209.416 5.60547 209.238 5.5918 209.047 5.5918C208.336 5.5918 207.854 5.89453 207.6 6.5V11H206.516V4.66016H207.57L207.588 5.39258C207.943 4.82617 208.447 4.54297 209.1 4.54297C209.311 4.54297 209.471 4.57031 209.58 4.625V5.63281ZM211.602 4.66016L211.631 5.36328C212.096 4.81641 212.723 4.54297 213.512 4.54297C214.398 4.54297 215.002 4.88281 215.322 5.5625C215.533 5.25781 215.807 5.01172 216.143 4.82422C216.482 4.63672 216.883 4.54297 217.344 4.54297C218.734 4.54297 219.441 5.2793 219.465 6.75195V11H218.381V6.81641C218.381 6.36328 218.277 6.02539 218.07 5.80273C217.863 5.57617 217.516 5.46289 217.027 5.46289C216.625 5.46289 216.291 5.58398 216.025 5.82617C215.76 6.06445 215.605 6.38672 215.562 6.79297V11H214.473V6.8457C214.473 5.92383 214.021 5.46289 213.119 5.46289C212.408 5.46289 211.922 5.76562 211.66 6.37109V11H210.576V4.66016H211.602ZM225.02 11C224.957 10.875 224.906 10.6523 224.867 10.332C224.363 10.8555 223.762 11.1172 223.062 11.1172C222.438 11.1172 221.924 10.9414 221.521 10.5898C221.123 10.2344 220.924 9.78516 220.924 9.24219C220.924 8.58203 221.174 8.07031 221.674 7.70703C222.178 7.33984 222.885 7.15625 223.795 7.15625H224.85V6.6582C224.85 6.2793 224.736 5.97852 224.51 5.75586C224.283 5.5293 223.949 5.41602 223.508 5.41602C223.121 5.41602 222.797 5.51367 222.535 5.70898C222.273 5.9043 222.143 6.14062 222.143 6.41797H221.053C221.053 6.10156 221.164 5.79688 221.387 5.50391C221.613 5.20703 221.918 4.97266 222.301 4.80078C222.688 4.62891 223.111 4.54297 223.572 4.54297C224.303 4.54297 224.875 4.72656 225.289 5.09375C225.703 5.45703 225.918 5.95898 225.934 6.59961V9.51758C225.934 10.0996 226.008 10.5625 226.156 10.9062V11H225.02ZM223.221 10.1738C223.561 10.1738 223.883 10.0859 224.188 9.91016C224.492 9.73438 224.713 9.50586 224.85 9.22461V7.92383H224C222.672 7.92383 222.008 8.3125 222.008 9.08984C222.008 9.42969 222.121 9.69531 222.348 9.88672C222.574 10.0781 222.865 10.1738 223.221 10.1738ZM228.811 11H227.727V2H228.811V11ZM239.141 9.50586L240.359 4.66016H241.443L239.598 11H238.719L237.178 6.19531L235.678 11H234.799L232.959 4.66016H234.037L235.285 9.40625L236.762 4.66016H237.635L239.141 9.50586ZM246.465 11C246.402 10.875 246.352 10.6523 246.312 10.332C245.809 10.8555 245.207 11.1172 244.508 11.1172C243.883 11.1172 243.369 10.9414 242.967 10.5898C242.568 10.2344 242.369 9.78516 242.369 9.24219C242.369 8.58203 242.619 8.07031 243.119 7.70703C243.623 7.33984 244.33 7.15625 245.24 7.15625H246.295V6.6582C246.295 6.2793 246.182 5.97852 245.955 5.75586C245.729 5.5293 245.395 5.41602 244.953 5.41602C244.566 5.41602 244.242 5.51367 243.98 5.70898C243.719 5.9043 243.588 6.14062 243.588 6.41797H242.498C242.498 6.10156 242.609 5.79688 242.832 5.50391C243.059 5.20703 243.363 4.97266 243.746 4.80078C244.133 4.62891 244.557 4.54297 245.018 4.54297C245.748 4.54297 246.32 4.72656 246.734 5.09375C247.148 5.45703 247.363 5.95898 247.379 6.59961V9.51758C247.379 10.0996 247.453 10.5625 247.602 10.9062V11H246.465ZM244.666 10.1738C245.006 10.1738 245.328 10.0859 245.633 9.91016C245.938 9.73438 246.158 9.50586 246.295 9.22461V7.92383H245.445C244.117 7.92383 243.453 8.3125 243.453 9.08984C243.453 9.42969 243.566 9.69531 243.793 9.88672C244.02 10.0781 244.311 10.1738 244.666 10.1738ZM250.549 3.125V4.66016H251.732V5.49805H250.549V9.42969C250.549 9.68359 250.602 9.875 250.707 10.0039C250.812 10.1289 250.992 10.1914 251.246 10.1914C251.371 10.1914 251.543 10.168 251.762 10.1211V11C251.477 11.0781 251.199 11.1172 250.93 11.1172C250.445 11.1172 250.08 10.9707 249.834 10.6777C249.588 10.3848 249.465 9.96875 249.465 9.42969V5.49805H248.311V4.66016H249.465V3.125H250.549ZM255.635 11.1172C254.775 11.1172 254.076 10.8359 253.537 10.2734C252.998 9.70703 252.729 8.95117 252.729 8.00586V7.80664C252.729 7.17773 252.848 6.61719 253.086 6.125C253.328 5.62891 253.664 5.24219 254.094 4.96484C254.527 4.68359 254.996 4.54297 255.5 4.54297C256.324 4.54297 256.965 4.81445 257.422 5.35742C257.879 5.90039 258.107 6.67773 258.107 7.68945V8.14062H253.812C253.828 8.76562 254.01 9.27148 254.357 9.6582C254.709 10.041 255.154 10.2324 255.693 10.2324C256.076 10.2324 256.4 10.1543 256.666 9.99805C256.932 9.8418 257.164 9.63477 257.363 9.37695L258.025 9.89258C257.494 10.709 256.697 11.1172 255.635 11.1172ZM255.5 5.43359C255.062 5.43359 254.695 5.59375 254.398 5.91406C254.102 6.23047 253.918 6.67578 253.848 7.25H257.023V7.16797C256.992 6.61719 256.844 6.19141 256.578 5.89062C256.312 5.58594 255.953 5.43359 255.5 5.43359ZM262.432 5.63281C262.268 5.60547 262.09 5.5918 261.898 5.5918C261.188 5.5918 260.705 5.89453 260.451 6.5V11H259.367V4.66016H260.422L260.439 5.39258C260.795 4.82617 261.299 4.54297 261.951 4.54297C262.162 4.54297 262.322 4.57031 262.432 4.625V5.63281ZM199.045 25H197.955V17.7754L195.77 18.5781V17.5938L198.875 16.4277H199.045V25ZM202.355 24.4316C202.355 24.2441 202.41 24.0879 202.52 23.9629C202.633 23.8379 202.801 23.7754 203.023 23.7754C203.246 23.7754 203.414 23.8379 203.527 23.9629C203.645 24.0879 203.703 24.2441 203.703 24.4316C203.703 24.6113 203.645 24.7617 203.527 24.8828C203.414 25.0039 203.246 25.0645 203.023 25.0645C202.801 25.0645 202.633 25.0039 202.52 24.8828C202.41 24.7617 202.355 24.6113 202.355 24.4316ZM210.559 18.6953C210.559 19.1211 210.445 19.5 210.219 19.832C209.996 20.1641 209.693 20.4238 209.311 20.6113C209.756 20.8027 210.107 21.082 210.365 21.4492C210.627 21.8164 210.758 22.2324 210.758 22.6973C210.758 23.4355 210.508 24.0234 210.008 24.4609C209.512 24.8984 208.857 25.1172 208.045 25.1172C207.225 25.1172 206.566 24.8984 206.07 24.4609C205.578 24.0195 205.332 23.4316 205.332 22.6973C205.332 22.2363 205.457 21.8203 205.707 21.4492C205.961 21.0781 206.311 20.7969 206.756 20.6055C206.377 20.418 206.078 20.1582 205.859 19.8262C205.641 19.4941 205.531 19.1172 205.531 18.6953C205.531 17.9766 205.762 17.4062 206.223 16.9844C206.684 16.5625 207.291 16.3516 208.045 16.3516C208.795 16.3516 209.4 16.5625 209.861 16.9844C210.326 17.4062 210.559 17.9766 210.559 18.6953ZM209.674 22.6738C209.674 22.1973 209.521 21.8086 209.217 21.5078C208.916 21.207 208.521 21.0566 208.033 21.0566C207.545 21.0566 207.152 21.2051 206.855 21.502C206.562 21.7988 206.416 22.1895 206.416 22.6738C206.416 23.1582 206.559 23.5391 206.844 23.8164C207.133 24.0938 207.533 24.2324 208.045 24.2324C208.553 24.2324 208.951 24.0938 209.24 23.8164C209.529 23.5352 209.674 23.1543 209.674 22.6738ZM208.045 17.2422C207.619 17.2422 207.273 17.375 207.008 17.6406C206.746 17.9023 206.615 18.2598 206.615 18.7129C206.615 19.1465 206.744 19.498 207.002 19.7676C207.264 20.0332 207.611 20.166 208.045 20.166C208.479 20.166 208.824 20.0332 209.082 19.7676C209.344 19.498 209.475 19.1465 209.475 18.7129C209.475 18.2793 209.34 17.9258 209.07 17.6523C208.801 17.3789 208.459 17.2422 208.045 17.2422ZM216.98 22.0645L216.301 22.7734V25H215.217V16H216.301V21.4434L216.881 20.7461L218.855 18.6602H220.174L217.707 21.3086L220.461 25H219.189L216.98 22.0645ZM220.918 21.7773C220.918 20.7891 221.146 20.0039 221.604 19.4219C222.061 18.8359 222.666 18.543 223.42 18.543C224.193 18.543 224.797 18.8164 225.23 19.3633L225.283 18.6602H226.273V24.8477C226.273 25.668 226.029 26.3145 225.541 26.7871C225.057 27.2598 224.404 27.4961 223.584 27.4961C223.127 27.4961 222.68 27.3984 222.242 27.2031C221.805 27.0078 221.471 26.7402 221.24 26.4004L221.803 25.75C222.268 26.3242 222.836 26.6113 223.508 26.6113C224.035 26.6113 224.445 26.4629 224.738 26.166C225.035 25.8691 225.184 25.4512 225.184 24.9121V24.3672C224.75 24.8672 224.158 25.1172 223.408 25.1172C222.666 25.1172 222.064 24.8184 221.604 24.2207C221.146 23.623 220.918 22.8086 220.918 21.7773ZM222.008 21.9004C222.008 22.6152 222.154 23.1777 222.447 23.5879C222.74 23.9941 223.15 24.1973 223.678 24.1973C224.361 24.1973 224.863 23.8867 225.184 23.2656V20.3711C224.852 19.7656 224.354 19.4629 223.689 19.4629C223.162 19.4629 222.75 19.668 222.453 20.0781C222.156 20.4883 222.008 21.0957 222.008 21.9004ZM228.131 25.7324H227.199L230.762 16.4688H231.688L228.131 25.7324ZM236.551 23.3184C236.551 23.0254 236.439 22.7988 236.217 22.6387C235.998 22.4746 235.613 22.334 235.062 22.2168C234.516 22.0996 234.08 21.959 233.756 21.7949C233.436 21.6309 233.197 21.4355 233.041 21.209C232.889 20.9824 232.812 20.7129 232.812 20.4004C232.812 19.8809 233.031 19.4414 233.469 19.082C233.91 18.7227 234.473 18.543 235.156 18.543C235.875 18.543 236.457 18.7285 236.902 19.0996C237.352 19.4707 237.576 19.9453 237.576 20.5234H236.486C236.486 20.2266 236.359 19.9707 236.105 19.7559C235.855 19.541 235.539 19.4336 235.156 19.4336C234.762 19.4336 234.453 19.5195 234.23 19.6914C234.008 19.8633 233.896 20.0879 233.896 20.3652C233.896 20.627 234 20.8242 234.207 20.957C234.414 21.0898 234.787 21.2168 235.326 21.3379C235.869 21.459 236.309 21.6035 236.645 21.7715C236.98 21.9395 237.229 22.1426 237.389 22.3809C237.553 22.6152 237.635 22.9023 237.635 23.2422C237.635 23.8086 237.408 24.2637 236.955 24.6074C236.502 24.9473 235.914 25.1172 235.191 25.1172C234.684 25.1172 234.234 25.0273 233.844 24.8477C233.453 24.668 233.146 24.418 232.924 24.0977C232.705 23.7734 232.596 23.4238 232.596 23.0488H233.68C233.699 23.4121 233.844 23.7012 234.113 23.916C234.387 24.127 234.746 24.2324 235.191 24.2324C235.602 24.2324 235.93 24.1504 236.176 23.9863C236.426 23.8184 236.551 23.5957 236.551 23.3184ZM203.023 39H201.934V31.7754L199.748 32.5781V31.5938L202.854 30.4277H203.023V39ZM206.697 34.7227L207.131 30.4688H211.502V31.4707H208.051L207.793 33.7969C208.211 33.5508 208.686 33.4277 209.217 33.4277C209.994 33.4277 210.611 33.6855 211.068 34.2012C211.525 34.7129 211.754 35.4062 211.754 36.2812C211.754 37.1602 211.516 37.8535 211.039 38.3613C210.566 38.8652 209.904 39.1172 209.053 39.1172C208.299 39.1172 207.684 38.9082 207.207 38.4902C206.73 38.0723 206.459 37.4941 206.393 36.7559H207.418C207.484 37.2441 207.658 37.6133 207.939 37.8633C208.221 38.1094 208.592 38.2324 209.053 38.2324C209.557 38.2324 209.951 38.0605 210.236 37.7168C210.525 37.373 210.67 36.8984 210.67 36.293C210.67 35.7227 210.514 35.2656 210.201 34.9219C209.893 34.5742 209.48 34.4004 208.965 34.4004C208.492 34.4004 208.121 34.5039 207.852 34.7109L207.564 34.9453L206.697 34.7227ZM218.287 35.3613C218.287 36.6309 218.07 37.5742 217.637 38.1914C217.203 38.8086 216.525 39.1172 215.604 39.1172C214.693 39.1172 214.02 38.8164 213.582 38.2148C213.145 37.6094 212.918 36.707 212.902 35.5078V34.0605C212.902 32.8066 213.119 31.875 213.553 31.2656C213.986 30.6562 214.666 30.3516 215.592 30.3516C216.51 30.3516 217.186 30.6465 217.619 31.2363C218.053 31.8223 218.275 32.7285 218.287 33.9551V35.3613ZM217.203 33.8789C217.203 32.9609 217.074 32.293 216.816 31.875C216.559 31.4531 216.15 31.2422 215.592 31.2422C215.037 31.2422 214.633 31.4512 214.379 31.8691C214.125 32.2871 213.994 32.9297 213.986 33.7969V35.5312C213.986 36.4531 214.119 37.1348 214.385 37.5762C214.654 38.0137 215.061 38.2324 215.604 38.2324C216.139 38.2324 216.535 38.0254 216.793 37.6113C217.055 37.1973 217.191 36.5449 217.203 35.6543V33.8789ZM222.705 31.875C222.705 31.4688 222.85 31.1133 223.139 30.8086C223.432 30.5039 223.785 30.3516 224.199 30.3516C224.605 30.3516 224.951 30.5039 225.236 30.8086C225.525 31.1094 225.67 31.4648 225.67 31.875C225.67 32.2891 225.525 32.6426 225.236 32.9355C224.951 33.2285 224.605 33.375 224.199 33.375C223.789 33.375 223.438 33.2285 223.145 32.9355C222.852 32.6426 222.705 32.2891 222.705 31.875ZM224.199 32.625C224.41 32.625 224.588 32.5566 224.732 32.4199C224.877 32.2793 224.949 32.0977 224.949 31.875C224.949 31.6484 224.877 31.4629 224.732 31.3184C224.588 31.1699 224.41 31.0957 224.199 31.0957C223.984 31.0957 223.803 31.1738 223.654 31.3301C223.51 31.4824 223.438 31.6641 223.438 31.875C223.438 32.0859 223.51 32.2637 223.654 32.4082C223.803 32.5527 223.984 32.625 224.199 32.625ZM233.697 36.293C233.592 37.1953 233.258 37.8926 232.695 38.3848C232.137 38.873 231.393 39.1172 230.463 39.1172C229.455 39.1172 228.646 38.7559 228.037 38.0332C227.432 37.3105 227.129 36.3438 227.129 35.1328V34.3125C227.129 33.5195 227.27 32.8223 227.551 32.2207C227.836 31.6191 228.238 31.1582 228.758 30.8379C229.277 30.5137 229.879 30.3516 230.562 30.3516C231.469 30.3516 232.195 30.6055 232.742 31.1133C233.289 31.6172 233.607 32.3164 233.697 33.2109H232.566C232.469 32.5312 232.256 32.0391 231.928 31.7344C231.604 31.4297 231.148 31.2773 230.562 31.2773C229.844 31.2773 229.279 31.543 228.869 32.0742C228.463 32.6055 228.26 33.3613 228.26 34.3418V35.168C228.26 36.0938 228.453 36.8301 228.84 37.377C229.227 37.9238 229.768 38.1973 230.463 38.1973C231.088 38.1973 231.566 38.0566 231.898 37.7754C232.234 37.4902 232.457 36.9961 232.566 36.293H233.697Z" fill="black"/>
<path d="M9.16211 73.3105L9.32617 74.4355L9.56641 73.4219L11.2539 67.4688H12.2031L13.8496 73.4219L14.084 74.4531L14.2656 73.3047L15.5898 67.4688H16.7207L14.6523 76H13.627L11.8691 69.7832L11.7344 69.1328L11.5996 69.7832L9.77734 76H8.75195L6.68945 67.4688H7.81445L9.16211 73.3105ZM21.5195 76C21.457 75.875 21.4062 75.6523 21.3672 75.332C20.8633 75.8555 20.2617 76.1172 19.5625 76.1172C18.9375 76.1172 18.4238 75.9414 18.0215 75.5898C17.623 75.2344 17.4238 74.7852 17.4238 74.2422C17.4238 73.582 17.6738 73.0703 18.1738 72.707C18.6777 72.3398 19.3848 72.1562 20.2949 72.1562H21.3496V71.6582C21.3496 71.2793 21.2363 70.9785 21.0098 70.7559C20.7832 70.5293 20.4492 70.416 20.0078 70.416C19.6211 70.416 19.2969 70.5137 19.0352 70.709C18.7734 70.9043 18.6426 71.1406 18.6426 71.418H17.5527C17.5527 71.1016 17.6641 70.7969 17.8867 70.5039C18.1133 70.207 18.418 69.9727 18.8008 69.8008C19.1875 69.6289 19.6113 69.543 20.0723 69.543C20.8027 69.543 21.375 69.7266 21.7891 70.0938C22.2031 70.457 22.418 70.959 22.4336 71.5996V74.5176C22.4336 75.0996 22.5078 75.5625 22.6562 75.9062V76H21.5195ZM19.7207 75.1738C20.0605 75.1738 20.3828 75.0859 20.6875 74.9102C20.9922 74.7344 21.2129 74.5059 21.3496 74.2246V72.9238H20.5C19.1719 72.9238 18.5078 73.3125 18.5078 74.0898C18.5078 74.4297 18.6211 74.6953 18.8477 74.8867C19.0742 75.0781 19.3652 75.1738 19.7207 75.1738ZM25.6035 68.125V69.6602H26.7871V70.498H25.6035V74.4297C25.6035 74.6836 25.6562 74.875 25.7617 75.0039C25.8672 75.1289 26.0469 75.1914 26.3008 75.1914C26.4258 75.1914 26.5977 75.168 26.8164 75.1211V76C26.5312 76.0781 26.2539 76.1172 25.9844 76.1172C25.5 76.1172 25.1348 75.9707 24.8887 75.6777C24.6426 75.3848 24.5195 74.9688 24.5195 74.4297V70.498H23.3652V69.6602H24.5195V68.125H25.6035ZM30.6895 76.1172C29.8301 76.1172 29.1309 75.8359 28.5918 75.2734C28.0527 74.707 27.7832 73.9512 27.7832 73.0059V72.8066C27.7832 72.1777 27.9023 71.6172 28.1406 71.125C28.3828 70.6289 28.7188 70.2422 29.1484 69.9648C29.582 69.6836 30.0508 69.543 30.5547 69.543C31.3789 69.543 32.0195 69.8145 32.4766 70.3574C32.9336 70.9004 33.1621 71.6777 33.1621 72.6895V73.1406H28.8672C28.8828 73.7656 29.0645 74.2715 29.4121 74.6582C29.7637 75.041 30.209 75.2324 30.748 75.2324C31.1309 75.2324 31.4551 75.1543 31.7207 74.998C31.9863 74.8418 32.2188 74.6348 32.418 74.377L33.0801 74.8926C32.5488 75.709 31.752 76.1172 30.6895 76.1172ZM30.5547 70.4336C30.1172 70.4336 29.75 70.5938 29.4531 70.9141C29.1562 71.2305 28.9727 71.6758 28.9023 72.25H32.0781V72.168C32.0469 71.6172 31.8984 71.1914 31.6328 70.8906C31.3672 70.5859 31.0078 70.4336 30.5547 70.4336ZM37.4863 70.6328C37.3223 70.6055 37.1445 70.5918 36.9531 70.5918C36.2422 70.5918 35.7598 70.8945 35.5059 71.5V76H34.4219V69.6602H35.4766L35.4941 70.3926C35.8496 69.8262 36.3535 69.543 37.0059 69.543C37.2168 69.543 37.377 69.5703 37.4863 69.625V70.6328ZM4.54492 90H3.45508V82.7754L1.26953 83.5781V82.5938L4.375 81.4277H4.54492V90ZM7.85547 89.4316C7.85547 89.2441 7.91016 89.0879 8.01953 88.9629C8.13281 88.8379 8.30078 88.7754 8.52344 88.7754C8.74609 88.7754 8.91406 88.8379 9.02734 88.9629C9.14453 89.0879 9.20312 89.2441 9.20312 89.4316C9.20312 89.6113 9.14453 89.7617 9.02734 89.8828C8.91406 90.0039 8.74609 90.0645 8.52344 90.0645C8.30078 90.0645 8.13281 90.0039 8.01953 89.8828C7.91016 89.7617 7.85547 89.6113 7.85547 89.4316ZM14.4473 90H13.3574V82.7754L11.1719 83.5781V82.5938L14.2773 81.4277H14.4473V90ZM22.4805 87.0645L21.8008 87.7734V90H20.7168V81H21.8008V86.4434L22.3809 85.7461L24.3555 83.6602H25.6738L23.207 86.3086L25.9609 90H24.6895L22.4805 87.0645ZM26.418 86.7773C26.418 85.7891 26.6465 85.0039 27.1035 84.4219C27.5605 83.8359 28.166 83.543 28.9199 83.543C29.6934 83.543 30.2969 83.8164 30.7305 84.3633L30.7832 83.6602H31.7734V89.8477C31.7734 90.668 31.5293 91.3145 31.041 91.7871C30.5566 92.2598 29.9043 92.4961 29.084 92.4961C28.627 92.4961 28.1797 92.3984 27.7422 92.2031C27.3047 92.0078 26.9707 91.7402 26.7402 91.4004L27.3027 90.75C27.7676 91.3242 28.3359 91.6113 29.0078 91.6113C29.5352 91.6113 29.9453 91.4629 30.2383 91.166C30.5352 90.8691 30.6836 90.4512 30.6836 89.9121V89.3672C30.25 89.8672 29.6582 90.1172 28.9082 90.1172C28.166 90.1172 27.5645 89.8184 27.1035 89.2207C26.6465 88.623 26.418 87.8086 26.418 86.7773ZM27.5078 86.9004C27.5078 87.6152 27.6543 88.1777 27.9473 88.5879C28.2402 88.9941 28.6504 89.1973 29.1777 89.1973C29.8613 89.1973 30.3633 88.8867 30.6836 88.2656V85.3711C30.3516 84.7656 29.8535 84.4629 29.1895 84.4629C28.6621 84.4629 28.25 84.668 27.9531 85.0781C27.6562 85.4883 27.5078 86.0957 27.5078 86.9004ZM33.6309 90.7324H32.6992L36.2617 81.4688H37.1875L33.6309 90.7324ZM42.0508 88.3184C42.0508 88.0254 41.9395 87.7988 41.7168 87.6387C41.498 87.4746 41.1133 87.334 40.5625 87.2168C40.0156 87.0996 39.5801 86.959 39.2559 86.7949C38.9355 86.6309 38.6973 86.4355 38.541 86.209C38.3887 85.9824 38.3125 85.7129 38.3125 85.4004C38.3125 84.8809 38.5312 84.4414 38.9688 84.082C39.4102 83.7227 39.9727 83.543 40.6562 83.543C41.375 83.543 41.957 83.7285 42.4023 84.0996C42.8516 84.4707 43.0762 84.9453 43.0762 85.5234H41.9863C41.9863 85.2266 41.8594 84.9707 41.6055 84.7559C41.3555 84.541 41.0391 84.4336 40.6562 84.4336C40.2617 84.4336 39.9531 84.5195 39.7305 84.6914C39.5078 84.8633 39.3965 85.0879 39.3965 85.3652C39.3965 85.627 39.5 85.8242 39.707 85.957C39.9141 86.0898 40.2871 86.2168 40.8262 86.3379C41.3691 86.459 41.8086 86.6035 42.1445 86.7715C42.4805 86.9395 42.7285 87.1426 42.8887 87.3809C43.0527 87.6152 43.1348 87.9023 43.1348 88.2422C43.1348 88.8086 42.9082 89.2637 42.4551 89.6074C42.002 89.9473 41.4141 90.1172 40.6914 90.1172C40.1836 90.1172 39.7344 90.0273 39.3438 89.8477C38.9531 89.668 38.6465 89.418 38.4238 89.0977C38.2051 88.7734 38.0957 88.4238 38.0957 88.0488H39.1797C39.1992 88.4121 39.3438 88.7012 39.6133 88.916C39.8867 89.127 40.2461 89.2324 40.6914 89.2324C41.1016 89.2324 41.4297 89.1504 41.6758 88.9863C41.9258 88.8184 42.0508 88.5957 42.0508 88.3184ZM13.9199 104H8.33008V103.221L11.2832 99.9395C11.7207 99.4434 12.0215 99.041 12.1855 98.7324C12.3535 98.4199 12.4375 98.0977 12.4375 97.7656C12.4375 97.3203 12.3027 96.9551 12.0332 96.6699C11.7637 96.3848 11.4043 96.2422 10.9551 96.2422C10.416 96.2422 9.99609 96.3965 9.69531 96.7051C9.39844 97.0098 9.25 97.4355 9.25 97.9824H8.16602C8.16602 97.1973 8.41797 96.5625 8.92188 96.0781C9.42969 95.5938 10.1074 95.3516 10.9551 95.3516C11.748 95.3516 12.375 95.5605 12.8359 95.9785C13.2969 96.3926 13.5273 96.9453 13.5273 97.6367C13.5273 98.4766 12.9922 99.4766 11.9219 100.637L9.63672 103.115H13.9199V104ZM20.418 100.361C20.418 101.631 20.2012 102.574 19.7676 103.191C19.334 103.809 18.6562 104.117 17.7344 104.117C16.8242 104.117 16.1504 103.816 15.7129 103.215C15.2754 102.609 15.0488 101.707 15.0332 100.508V99.0605C15.0332 97.8066 15.25 96.875 15.6836 96.2656C16.1172 95.6562 16.7969 95.3516 17.7227 95.3516C18.6406 95.3516 19.3164 95.6465 19.75 96.2363C20.1836 96.8223 20.4062 97.7285 20.418 98.9551V100.361ZM19.334 98.8789C19.334 97.9609 19.2051 97.293 18.9473 96.875C18.6895 96.4531 18.2812 96.2422 17.7227 96.2422C17.168 96.2422 16.7637 96.4512 16.5098 96.8691C16.2559 97.2871 16.125 97.9297 16.1172 98.7969V100.531C16.1172 101.453 16.25 102.135 16.5156 102.576C16.7852 103.014 17.1914 103.232 17.7344 103.232C18.2695 103.232 18.666 103.025 18.9238 102.611C19.1855 102.197 19.3223 101.545 19.334 100.654V98.8789ZM24.8359 96.875C24.8359 96.4688 24.9805 96.1133 25.2695 95.8086C25.5625 95.5039 25.916 95.3516 26.3301 95.3516C26.7363 95.3516 27.082 95.5039 27.3672 95.8086C27.6562 96.1094 27.8008 96.4648 27.8008 96.875C27.8008 97.2891 27.6562 97.6426 27.3672 97.9355C27.082 98.2285 26.7363 98.375 26.3301 98.375C25.9199 98.375 25.5684 98.2285 25.2754 97.9355C24.9824 97.6426 24.8359 97.2891 24.8359 96.875ZM26.3301 97.625C26.541 97.625 26.7188 97.5566 26.8633 97.4199C27.0078 97.2793 27.0801 97.0977 27.0801 96.875C27.0801 96.6484 27.0078 96.4629 26.8633 96.3184C26.7188 96.1699 26.541 96.0957 26.3301 96.0957C26.1152 96.0957 25.9336 96.1738 25.7852 96.3301C25.6406 96.4824 25.5684 96.6641 25.5684 96.875C25.5684 97.0859 25.6406 97.2637 25.7852 97.4082C25.9336 97.5527 26.1152 97.625 26.3301 97.625ZM35.8281 101.293C35.7227 102.195 35.3887 102.893 34.8262 103.385C34.2676 103.873 33.5234 104.117 32.5938 104.117C31.5859 104.117 30.7773 103.756 30.168 103.033C29.5625 102.311 29.2598 101.344 29.2598 100.133V99.3125C29.2598 98.5195 29.4004 97.8223 29.6816 97.2207C29.9668 96.6191 30.3691 96.1582 30.8887 95.8379C31.4082 95.5137 32.0098 95.3516 32.6934 95.3516C33.5996 95.3516 34.3262 95.6055 34.873 96.1133C35.4199 96.6172 35.7383 97.3164 35.8281 98.2109H34.6973C34.5996 97.5312 34.3867 97.0391 34.0586 96.7344C33.7344 96.4297 33.2793 96.2773 32.6934 96.2773C31.9746 96.2773 31.4102 96.543 31 97.0742C30.5938 97.6055 30.3906 98.3613 30.3906 99.3418V100.168C30.3906 101.094 30.584 101.83 30.9707 102.377C31.3574 102.924 31.8984 103.197 32.5938 103.197C33.2188 103.197 33.6973 103.057 34.0293 102.775C34.3652 102.49 34.5879 101.996 34.6973 101.293H35.8281Z" fill="black"/>
<path d="M251.338 97.0781L247.805 105H246.668L250.189 97.3594H245.572V96.4688H251.338V97.0781ZM257.918 101.361C257.918 102.631 257.701 103.574 257.268 104.191C256.834 104.809 256.156 105.117 255.234 105.117C254.324 105.117 253.65 104.816 253.213 104.215C252.775 103.609 252.549 102.707 252.533 101.508V100.061C252.533 98.8066 252.75 97.875 253.184 97.2656C253.617 96.6562 254.297 96.3516 255.223 96.3516C256.141 96.3516 256.816 96.6465 257.25 97.2363C257.684 97.8223 257.906 98.7285 257.918 99.9551V101.361ZM256.834 99.8789C256.834 98.9609 256.705 98.293 256.447 97.875C256.189 97.4531 255.781 97.2422 255.223 97.2422C254.668 97.2422 254.264 97.4512 254.01 97.8691C253.756 98.2871 253.625 98.9297 253.617 99.7969V101.531C253.617 102.453 253.75 103.135 254.016 103.576C254.285 104.014 254.691 104.232 255.234 104.232C255.77 104.232 256.166 104.025 256.424 103.611C256.686 103.197 256.822 102.545 256.834 101.654V99.8789ZM262.336 97.875C262.336 97.4688 262.48 97.1133 262.77 96.8086C263.062 96.5039 263.416 96.3516 263.83 96.3516C264.236 96.3516 264.582 96.5039 264.867 96.8086C265.156 97.1094 265.301 97.4648 265.301 97.875C265.301 98.2891 265.156 98.6426 264.867 98.9355C264.582 99.2285 264.236 99.375 263.83 99.375C263.42 99.375 263.068 99.2285 262.775 98.9355C262.482 98.6426 262.336 98.2891 262.336 97.875ZM263.83 98.625C264.041 98.625 264.219 98.5566 264.363 98.4199C264.508 98.2793 264.58 98.0977 264.58 97.875C264.58 97.6484 264.508 97.4629 264.363 97.3184C264.219 97.1699 264.041 97.0957 263.83 97.0957C263.615 97.0957 263.434 97.1738 263.285 97.3301C263.141 97.4824 263.068 97.6641 263.068 97.875C263.068 98.0859 263.141 98.2637 263.285 98.4082C263.434 98.5527 263.615 98.625 263.83 98.625ZM273.328 102.293C273.223 103.195 272.889 103.893 272.326 104.385C271.768 104.873 271.023 105.117 270.094 105.117C269.086 105.117 268.277 104.756 267.668 104.033C267.062 103.311 266.76 102.344 266.76 101.133V100.312C266.76 99.5195 266.9 98.8223 267.182 98.2207C267.467 97.6191 267.869 97.1582 268.389 96.8379C268.908 96.5137 269.51 96.3516 270.193 96.3516C271.1 96.3516 271.826 96.6055 272.373 97.1133C272.92 97.6172 273.238 98.3164 273.328 99.2109H272.197C272.1 98.5312 271.887 98.0391 271.559 97.7344C271.234 97.4297 270.779 97.2773 270.193 97.2773C269.475 97.2773 268.91 97.543 268.5 98.0742C268.094 98.6055 267.891 99.3613 267.891 100.342V101.168C267.891 102.094 268.084 102.83 268.471 103.377C268.857 103.924 269.398 104.197 270.094 104.197C270.719 104.197 271.197 104.057 271.529 103.775C271.865 103.49 272.088 102.996 272.197 102.293H273.328Z" fill="black"/>
<path d="M97 146.5C92 146.5 89 144 89 138C89 132 91.5 122 91.5 116C91.5 110 86 110 86 110" stroke="black"/>
<path d="M118.643 151H117.553V143.775L115.367 144.578V143.594L118.473 142.428H118.643V151ZM123.395 146.207H124.209C124.721 146.199 125.123 146.064 125.416 145.803C125.709 145.541 125.855 145.188 125.855 144.742C125.855 143.742 125.357 143.242 124.361 143.242C123.893 143.242 123.518 143.377 123.236 143.646C122.959 143.912 122.82 144.266 122.82 144.707H121.736C121.736 144.031 121.982 143.471 122.475 143.025C122.971 142.576 123.6 142.352 124.361 142.352C125.166 142.352 125.797 142.564 126.254 142.99C126.711 143.416 126.939 144.008 126.939 144.766C126.939 145.137 126.818 145.496 126.576 145.844C126.338 146.191 126.012 146.451 125.598 146.623C126.066 146.771 126.428 147.018 126.682 147.361C126.939 147.705 127.068 148.125 127.068 148.621C127.068 149.387 126.818 149.994 126.318 150.443C125.818 150.893 125.168 151.117 124.367 151.117C123.566 151.117 122.914 150.9 122.41 150.467C121.91 150.033 121.66 149.461 121.66 148.75H122.75C122.75 149.199 122.896 149.559 123.189 149.828C123.482 150.098 123.875 150.232 124.367 150.232C124.891 150.232 125.291 150.096 125.568 149.822C125.846 149.549 125.984 149.156 125.984 148.645C125.984 148.148 125.832 147.768 125.527 147.502C125.223 147.236 124.783 147.1 124.209 147.092H123.395V146.207ZM134.188 150.232C134.574 150.232 134.912 150.115 135.201 149.881C135.49 149.646 135.65 149.354 135.682 149.002H136.707C136.688 149.365 136.562 149.711 136.332 150.039C136.102 150.367 135.793 150.629 135.406 150.824C135.023 151.02 134.617 151.117 134.188 151.117C133.324 151.117 132.637 150.83 132.125 150.256C131.617 149.678 131.363 148.889 131.363 147.889V147.707C131.363 147.09 131.477 146.541 131.703 146.061C131.93 145.58 132.254 145.207 132.676 144.941C133.102 144.676 133.604 144.543 134.182 144.543C134.893 144.543 135.482 144.756 135.951 145.182C136.424 145.607 136.676 146.16 136.707 146.84H135.682C135.65 146.43 135.494 146.094 135.213 145.832C134.936 145.566 134.592 145.434 134.182 145.434C133.631 145.434 133.203 145.633 132.898 146.031C132.598 146.426 132.447 146.998 132.447 147.748V147.953C132.447 148.684 132.598 149.246 132.898 149.641C133.199 150.035 133.629 150.232 134.188 150.232ZM138.945 144.66L138.975 145.363C139.439 144.816 140.066 144.543 140.855 144.543C141.742 144.543 142.346 144.883 142.666 145.562C142.877 145.258 143.15 145.012 143.486 144.824C143.826 144.637 144.227 144.543 144.688 144.543C146.078 144.543 146.785 145.279 146.809 146.752V151H145.725V146.816C145.725 146.363 145.621 146.025 145.414 145.803C145.207 145.576 144.859 145.463 144.371 145.463C143.969 145.463 143.635 145.584 143.369 145.826C143.104 146.064 142.949 146.387 142.906 146.793V151H141.816V146.846C141.816 145.924 141.365 145.463 140.463 145.463C139.752 145.463 139.266 145.766 139.004 146.371V151H137.92V144.66H138.945Z" fill="black"/>
<circle cx="106" cy="147" r="4.5" stroke="black"/>
<path d="M101 151.151L111.088 142.376" stroke="black"/>
</svg>
